# xmcd
#
# Track frame offsets:
#	150
#	14794
#	33101
#	59466
#	72914
#	95322
#	111580
#	130700
#	144482
#	174756
#	190326
#
# Disc length: 2898 seconds
#
# Revision: 1
# Processed by: cddbd v1.5.2PL0 Copyright (c) Steve Scherf et al.
# Submitted via: audiograbber 1.82.01
#
DISCID=970b500b
DTITLE=Various Artist - Pool Position Promotion Sampler 2005-05 CD1
DYEAR=2005
DGENRE=Dance
TTITLE0=Fun Factory - Ilarie (radio edit)
TTITLE1=Resource feat Reflex - 18 (The russian track) (reflex single mix)
TTITLE2=Resource feat Reflex - 18 (The russian track) (potatoheadz remix)
TTITLE3=Axwell - (Can you) feel the vibe (radio edit)
TTITLE4=TQ - right on (club mix)
TTITLE5=J4L - Pushin (Radio Edit)
TTITLE6=J4L - Pushin (Sugar´n Pappa RMX)
TTITLE7=Reggaetone Masters - Chacaron (Radio)
TTITLE8=Reggaetone Masters - Chacaron (Cha remix)
TTITLE9=Elena - Lumea Ta (Single Dance mix)
TTITLE10=Elena - Lumea Ta (Potatoheadz Remix)
EXTD=
EXTT0=
EXTT1=
EXTT2=
EXTT3=
EXTT4=
EXTT5=
EXTT6=
EXTT7=
EXTT8=
EXTT9=
EXTT10=
PLAYORDER=
